mtllib test_level_base.mtl
# vertices
v -64 -32 -480
v -64 -32 64
v -64 0 64
v -64 0 -480
v 64 0 64
v 64 -32 64
v 64 -32 -480
v 64 0 -480
v 64 -32 -480
v 64 -32 64
v 64 224 64
v 64 224 -480
v 96 224 64
v 96 -32 64
v 96 -32 -480
v 96 224 -480
v -96 -32 -480
v -96 -32 64
v -96 224 64
v -96 224 -480
v -64 224 64
v -64 -32 64
v -64 -32 -480
v -64 224 -480
v -64 192 -480
v -64 192 64
v -64 224 64
v -64 224 -480
v 64 224 64
v 64 192 64
v 64 192 -480
v 64 224 -480
v -960 -32 -1376
v -960 -32 -480
v -960 0 -480
v -960 0 -1376
v 256 0 -480
v 256 -32 -480
v 256 -32 -1376
v 256 0 -1376
v -960 -32 -480
v -960 -32 -448
v -960 224 -448
v -960 224 -480
v -96 224 -448
v -96 -32 -448
v -96 -32 -480
v -96 224 -480
v 256 -32 -1376
v 256 -32 -480
v 256 320 -480
v 256 320 -1376
v 288 320 -480
v 288 -32 -480
v 288 -32 -1376
v 288 320 -1376
v 96 -32 -480
v 96 -32 -448
v 96 224 -448
v 96 224 -480
v 256 224 -448
v 256 -32 -448
v 256 -32 -480
v 256 224 -480
v -960 224 -480
v -960 224 -448
v -960 320 -448
v -960 320 -480
v 256 320 -448
v 256 224 -448
v 256 224 -480
v 256 320 -480
v -96 -32 64
v -96 -32 96
v -96 224 96
v -96 224 64
v 96 224 96
v 96 -32 96
v 96 -32 64
v 96 224 64
v -320 0 -544
v -320 0 -480
v -320 320 -480
v -320 320 -544
v -256 320 -480
v -256 0 -480
v -256 0 -544
v -256 320 -544
v -960 320 -1376
v -960 320 -480
v -960 352 -480
v -960 352 -1376
v 288 352 -480
v 288 320 -480
v 288 320 -1376
v 288 352 -1376
v -512 0 -544
v -512 0 -480
v -512 320 -480
v -512 320 -544
v -448 320 -480
v -448 0 -480
v -448 0 -544
v -448 320 -544
v 64 0 -1120
v 64 0 -1056
v 64 320 -1056
v 64 320 -1120
v 128 320 -1056
v 128 0 -1056
v 128 0 -1120
v 128 320 -1120
v -128 0 -1120
v -128 0 -1056
v -128 320 -1056
v -128 320 -1120
v -64 320 -1056
v -64 0 -1056
v -64 0 -1120
v -64 320 -1120
v -704 0 -1120
v -704 0 -1056
v -704 320 -1056
v -704 320 -1120
v -640 320 -1056
v -640 0 -1056
v -640 0 -1120
v -640 320 -1120
v -512 0 -1120
v -512 0 -1056
v -512 320 -1056
v -512 320 -1120
v -448 320 -1056
v -448 0 -1056
v -448 0 -1120
v -448 320 -1120
v -960 0 -864
v -960 0 -480
v -960 128 -480
v -960 128 -864
v -704 128 -480
v -704 0 -480
v -704 0 -864
v -704 128 -864
v -960 -32 -1408
v -960 -32 -1376
v -960 352 -1376
v -960 352 -1408
v 288 352 -1376
v 288 -32 -1376
v 288 -32 -1408
v 288 352 -1408
v -384 0 -1376
v -384 0 -1312
v -384 256 -1312
v -384 256 -1376
v -192 256 -1312
v -192 0 -1312
v -192 0 -1376
v -192 256 -1376
v -768 0 -1376
v -768 0 -1312
v -768 256 -1312
v -768 256 -1376
v -576 256 -1312
v -576 0 -1312
v -576 0 -1376
v -576 256 -1376
v -1408 -32 -1248
v -1408 -32 -1120
v -1408 0 -1120
v -1408 0 -1248
v -960 0 -1120
v -960 -32 -1120
v -960 -32 -1248
v -960 0 -1248
v -1408 -32 -1280
v -1408 -32 -1248
v -1408 192 -1248
v -1408 192 -1280
v -960 192 -1248
v -960 -32 -1248
v -960 -32 -1280
v -960 192 -1280
v -992 -32 -1376
v -992 -32 -1280
v -992 352 -1280
v -992 352 -1376
v -960 352 -1280
v -960 -32 -1280
v -960 -32 -1376
v -960 352 -1376
v -1408 -32 -1120
v -1408 -32 -1088
v -1408 192 -1088
v -1408 192 -1120
v -960 192 -1088
v -960 -32 -1088
v -960 -32 -1120
v -960 192 -1120
v -1408 192 -1280
v -1408 192 -1088
v -1408 224 -1088
v -1408 224 -1280
v -960 224 -1088
v -960 192 -1088
v -960 192 -1280
v -960 224 -1280
v -992 -32 -1088
v -992 -32 -480
v -992 352 -480
v -992 352 -1088
v -960 352 -480
v -960 -32 -480
v -960 -32 -1088
v -960 352 -1088
v -992 224 -1280
v -992 224 -1088
v -992 352 -1088
v -992 352 -1280
v -960 352 -1088
v -960 224 -1088
v -960 224 -1280
v -960 352 -1280
v 0 0 -1376
v 0 0 -1312
v 0 256 -1312
v 0 256 -1376
v 192 256 -1312
v 192 0 -1312
v 192 0 -1376
v 192 256 -1376
v 64 0 -544
v 64 0 -480
v 64 320 -480
v 64 320 -544
v 128 320 -480
v 128 0 -480
v 128 0 -544
v 128 320 -544
v -128 0 -544
v -128 0 -480
v -128 320 -480
v -128 320 -544
v -64 320 -480
v -64 0 -480
v -64 0 -544
v -64 320 -544
v -960 0 -1120
v -960 0 -1056
v -960 320 -1056
v -960 320 -1120
v -896 320 -1056
v -896 0 -1056
v -896 0 -1120
v -896 320 -1120
v -960 0 -1312
v -960 0 -1248
v -960 320 -1248
v -960 320 -1312
v -896 320 -1248
v -896 0 -1248
v -896 0 -1312
v -896 320 -1312
v -128 0 -928
v -128 0 -864
v -128 320 -864
v -128 320 -928
v -64 320 -864
v -64 0 -864
v -64 0 -928
v -64 320 -928
v -128 0 -1312
v -128 0 -1248
v -128 320 -1248
v -128 320 -1312
v -64 320 -1248
v -64 0 -1248
v -64 0 -1312
v -64 320 -1312
v -512 0 -928
v -512 0 -864
v -512 320 -864
v -512 320 -928
v -448 320 -864
v -448 0 -864
v -448 0 -928
v -448 320 -928
v -512 0 -1312
v -512 0 -1248
v -512 320 -1248
v -512 320 -1312
v -448 320 -1248
v -448 0 -1248
v -448 0 -1312
v -448 320 -1312

# texture coordinates
vt 7.5 -0.5
vt -1 -0.5
vt -1 -0
vt 7.5 -0
vt 1 -0
vt 1 -0.5
vt -1 -1
vt -1 1
vt 7.5 1
vt 7.5 -1
vt -1 3.5
vt 7.5 3.5
vt -1.5 3.5
vt -1.5 -0.5
vt -1 -1.5
vt 7.5 -1.5
vt 1 3.5
vt 1.5 3.5
vt 1.5 -0.5
vt -1 1.5
vt 7.5 1.5
vt 7.5 3
vt -1 3
vt 1 3
vt 22 -0.5
vt 8 -0.5
vt 8 -0
vt 22 -0
vt -4 -0
vt 15 -0
vt 15 -0.5
vt -4 -0.5
vt 8 -4
vt 8 15
vt 22 15
vt 22 -4
vt 7 -0.5
vt 7 3.5
vt 15 3.5
vt 7 1.5
vt 7 15
vt 7.5 15
vt 8 5
vt 22 5
vt -4.5 5
vt -4 5
vt -4.5 -0.5
vt 8 -4.5
vt 22 -4.5
vt -4 3.5
vt 7 -4
vt 7 -1.5
vt 7.5 -4
vt 7 5
vt 7.5 5
vt 15 5
vt -2 -0.5
vt -2 3.5
vt -2 -1.5
vt -2 1.5
vt -1.5 1.5
vt -1.5 -1.5
vt 9 -0
vt 9 5
vt 4 5
vt 5 5
vt 5 -0
vt 4 -0
vt 8 4
vt 9 4
vt 8 5.5
vt 22 5.5
vt -4.5 5.5
vt 15 5.5
vt 7 -0
vt 8 7
vt 8 8
vt 9 8
vt 9 7
vt 18 -0
vt 17 -0
vt 17 5
vt 18 5
vt -2 5
vt -1 5
vt -2 -0
vt 17 -2
vt 17 -1
vt 18 -1
vt 18 -2
vt 16 -0
vt 16 5
vt 1 5
vt 2 5
vt 2 -0
vt 16 1
vt 16 2
vt 17 2
vt 17 1
vt 10 5
vt 11 5
vt 11 -0
vt 10 -0
vt 17 10
vt 17 11
vt 18 11
vt 18 10
vt 17 7
vt 17 8
vt 18 8
vt 18 7
vt 14 -0
vt 8 2
vt 14 2
vt 11 2
vt 15 2
vt 8 11
vt 14 15
vt 14 11
vt 21.5 -0.5
vt 21.5 5.5
vt 21.5 -4.5
vt 21.5 15
vt 21 -0
vt 20 -0
vt 20 4
vt 21 4
vt 3 4
vt 6 4
vt 6 -0
vt 3 -0
vt 20 3
vt 20 6
vt 21 6
vt 21 3
vt 22 4
vt 12 4
vt 12 -0
vt 21 9
vt 21 12
vt 22 12
vt 22 9
vt 20 -0.5
vt 18 -0.5
vt -15 -0
vt -22 -0
vt -22 -0.5
vt -15 -0.5
vt -15 18
vt -22 18
vt -22 20
vt -15 20
vt 20.5 -0.5
vt 20.5 3
vt -15 3
vt -22 3
vt -22 20.5
vt -15 20.5
vt 20.5 5.5
vt -15 5.5
vt -15.5 5.5
vt -15.5 -0.5
vt -15.5 20.5
vt -15.5 22
vt -15 22
vt 17.5 -0.5
vt 17.5 3
vt 18 3
vt -15 17.5
vt -22 17.5
vt 17.5 3.5
vt 20.5 3.5
vt -15 3.5
vt -22 3.5
vt 17.5 5.5
vt -15 8
vt -15.5 8
vt -15.5 17.5
vt -15.5 3.5
vt -3 4
vt 0 4
vt 0 -0
vt -3 -0
vt 20 -3
vt 21 -3
vt 8 -2
vt 8 -1
vt 9 -1
vt 9 -2
vt 8 1
vt 9 2
vt 9 1
vt 14 5
vt 17 14
vt 17 15
vt 18 15
vt 18 14
vt 20 5
vt 21 5
vt 20 14
vt 20 15
vt 21 15
vt 21 14
vt 14 1
vt 15 1
vt 19 -0
vt 19 5
vt 19 1
vt 19 2
vt 20 2
vt 20 1
vt 14 7
vt 14 8
vt 15 8
vt 15 7
vt 20 7
vt 20 8
vt 21 8
vt 21 7

# normals
vn -1 0 -0
vn 0 0 1
vn 0 -1 -0
vn 0 1 0
vn 0 -0 -1
vn 1 0 -0

o entity0_brush0
usemtl test_level/test_texture
f  1/1/1  2/2/1  3/3/1  4/4/1
usemtl test_level/test_texture
f  5/3/2  3/5/2  2/6/2  6/2/2
usemtl test_level/test_texture
f  6/7/3  2/8/3  1/9/3  7/10/3
usemtl test_level/test_texture
f  8/10/4  4/9/4  3/8/4  5/7/4
usemtl test_level/test_texture
f  7/2/5  1/6/5  4/5/5  8/3/5
usemtl test_level/test_texture
f  8/4/6  5/3/6  6/2/6  7/1/6

o entity0_brush1
usemtl test_level/test_texture
f  9/1/1  10/2/1  11/11/1  12/12/1
usemtl test_level/test_texture
f  13/13/2  11/11/2  10/2/2  14/14/2
usemtl test_level/test_texture
f  14/15/3  10/7/3  9/10/3  15/16/3
usemtl test_level/test_texture
f  16/16/4  12/10/4  11/7/4  13/15/4
usemtl test_level/test_texture
f  15/14/5  9/2/5  12/11/5  16/13/5
usemtl test_level/test_texture
f  16/12/6  13/11/6  14/2/6  15/1/6

o entity0_brush2
usemtl test_level/test_texture
f  17/1/1  18/2/1  19/11/1  20/12/1
usemtl test_level/test_texture
f  21/17/2  19/18/2  18/19/2  22/6/2
usemtl test_level/test_texture
f  22/8/3  18/20/3  17/21/3  23/9/3
usemtl test_level/test_texture
f  24/9/4  20/21/4  19/20/4  21/8/4
usemtl test_level/test_texture
f  23/6/5  17/19/5  20/18/5  24/17/5
usemtl test_level/test_texture
f  24/12/6  21/11/6  22/2/6  23/1/6

o entity0_brush3
usemtl test_level/test_texture
f  25/22/1  26/23/1  27/11/1  28/12/1
usemtl test_level/test_texture
f  29/11/2  27/17/2  26/24/2  30/23/2
usemtl test_level/test_texture
f  30/7/3  26/8/3  25/9/3  31/10/3
usemtl test_level/test_texture
f  32/10/4  28/9/4  27/8/4  29/7/4
usemtl test_level/test_texture
f  31/23/5  25/24/5  28/17/5  32/11/5
usemtl test_level/test_texture
f  32/12/6  29/11/6  30/23/6  31/22/6

o entity0_brush4
usemtl test_level/test_texture
f  33/25/1  34/26/1  35/27/1  36/28/1
usemtl test_level/test_texture
f  37/29/2  35/30/2  34/31/2  38/32/2
usemtl test_level/test_texture
f  38/33/3  34/34/3  33/35/3  39/36/3
usemtl test_level/test_texture
f  40/36/4  36/35/4  35/34/4  37/33/4
usemtl test_level/test_texture
f  39/32/5  33/31/5  36/30/5  40/29/5
usemtl test_level/test_texture
f  40/28/6  37/27/6  38/26/6  39/25/6

o entity0_brush5
usemtl test_level/test_texture
f  41/1/1  42/37/1  43/38/1  44/12/1
usemtl test_level/test_texture
f  45/18/2  43/39/2  42/31/2  46/19/2
usemtl test_level/test_texture
f  46/40/3  42/41/3  41/42/3  47/21/3
usemtl test_level/test_texture
f  48/21/4  44/42/4  43/41/4  45/40/4
usemtl test_level/test_texture
f  47/19/5  41/31/5  44/39/5  48/18/5
usemtl test_level/test_texture
f  48/12/6  45/38/6  46/37/6  47/1/6

o entity0_brush6
usemtl test_level/test_texture
f  49/25/1  50/26/1  51/43/1  52/44/1
usemtl test_level/test_texture
f  53/45/2  51/46/2  50/32/2  54/47/2
usemtl test_level/test_texture
f  54/48/3  50/33/3  49/36/3  55/49/3
usemtl test_level/test_texture
f  56/49/4  52/36/4  51/33/4  53/48/4
usemtl test_level/test_texture
f  55/47/5  49/32/5  52/46/5  56/45/5
usemtl test_level/test_texture
f  56/44/6  53/43/6  54/26/6  55/25/6

o entity0_brush7
usemtl test_level/test_texture
f  57/1/1  58/37/1  59/38/1  60/12/1
usemtl test_level/test_texture
f  61/50/2  59/13/2  58/14/2  62/32/2
usemtl test_level/test_texture
f  62/51/3  58/52/3  57/16/3  63/53/3
usemtl test_level/test_texture
f  64/53/4  60/16/4  59/52/4  61/51/4
usemtl test_level/test_texture
f  63/32/5  57/14/5  60/13/5  64/50/5
usemtl test_level/test_texture
f  64/12/6  61/38/6  62/37/6  63/1/6

o entity0_brush8
usemtl test_level/test_texture
f  65/12/1  66/38/1  67/54/1  68/55/1
usemtl test_level/test_texture
f  69/46/2  67/56/2  66/39/2  70/50/2
usemtl test_level/test_texture
f  70/51/3  66/41/3  65/42/3  71/53/3
usemtl test_level/test_texture
f  72/53/4  68/42/4  67/41/4  69/51/4
usemtl test_level/test_texture
f  71/50/5  65/39/5  68/56/5  72/46/5
usemtl test_level/test_texture
f  72/55/6  69/54/6  70/38/6  71/12/6

o entity0_brush9
usemtl test_level/test_texture
f  73/14/1  74/57/1  75/58/1  76/13/1
usemtl test_level/test_texture
f  77/13/2  75/18/2  74/19/2  78/14/2
usemtl test_level/test_texture
f  78/59/3  74/60/3  73/61/3  79/62/3
usemtl test_level/test_texture
f  80/62/4  76/61/4  75/60/4  77/59/4
usemtl test_level/test_texture
f  79/14/5  73/19/5  76/18/5  80/13/5
usemtl test_level/test_texture
f  80/13/6  77/58/6  78/57/6  79/14/6

o entity0_brush10
usemtl test_level/test_texture
f  81/63/1  82/27/1  83/43/1  84/64/1
usemtl test_level/test_texture
f  85/65/2  83/66/2  82/67/2  86/68/2
usemtl test_level/test_texture
f  86/69/3  82/43/3  81/64/3  87/70/3
usemtl test_level/test_texture
f  88/70/4  84/64/4  83/43/4  85/69/4
usemtl test_level/test_texture
f  87/68/5  81/67/5  84/66/5  88/65/5
usemtl test_level/test_texture
f  88/64/6  85/43/6  86/27/6  87/63/6

o entity0_brush11
usemtl test_level/test_texture
f  89/44/1  90/43/1  91/71/1  92/72/1
usemtl test_level/test_texture
f  93/73/2  91/74/2  90/56/2  94/45/2
usemtl test_level/test_texture
f  94/48/3  90/34/3  89/35/3  95/49/3
usemtl test_level/test_texture
f  96/49/4  92/35/4  91/34/4  93/48/4
usemtl test_level/test_texture
f  95/45/5  89/56/5  92/74/5  96/73/5
usemtl test_level/test_texture
f  96/72/6  93/71/6  94/43/6  95/44/6

o entity0_brush12
usemtl test_level/test_texture
f  97/63/1  98/27/1  99/43/1  100/64/1
usemtl test_level/test_texture
f  101/54/2  99/43/2  98/27/2  102/75/2
usemtl test_level/test_texture
f  102/76/3  98/77/3  97/78/3  103/79/3
usemtl test_level/test_texture
f  104/79/4  100/78/4  99/77/4  101/76/4
usemtl test_level/test_texture
f  103/75/5  97/27/5  100/43/5  104/54/5
usemtl test_level/test_texture
f  104/64/6  101/43/6  102/27/6  103/63/6

o entity0_brush13
usemtl test_level/test_texture
f  105/80/1  106/81/1  107/82/1  108/83/1
usemtl test_level/test_texture
f  109/84/2  107/85/2  106/3/2  110/86/2
usemtl test_level/test_texture
f  110/87/3  106/88/3  105/89/3  111/90/3
usemtl test_level/test_texture
f  112/90/4  108/89/4  107/88/4  109/87/4
usemtl test_level/test_texture
f  111/86/5  105/3/5  108/85/5  112/84/5
usemtl test_level/test_texture
f  112/83/6  109/82/6  110/81/6  111/80/6

o entity0_brush14
usemtl test_level/test_texture
f  113/81/1  114/91/1  115/92/1  116/82/1
usemtl test_level/test_texture
f  117/93/2  115/94/2  114/95/2  118/5/2
usemtl test_level/test_texture
f  118/96/3  114/97/3  113/98/3  119/99/3
usemtl test_level/test_texture
f  120/99/4  116/98/4  115/97/4  117/96/4
usemtl test_level/test_texture
f  119/5/5  113/95/5  116/94/5  120/93/5
usemtl test_level/test_texture
f  120/82/6  117/92/6  118/91/6  119/81/6

o entity0_brush15
usemtl test_level/test_texture
f  121/80/1  122/81/1  123/82/1  124/83/1
usemtl test_level/test_texture
f  125/100/2  123/101/2  122/102/2  126/103/2
usemtl test_level/test_texture
f  126/104/3  122/105/3  121/106/3  127/107/3
usemtl test_level/test_texture
f  128/107/4  124/106/4  123/105/4  125/104/4
usemtl test_level/test_texture
f  127/103/5  121/102/5  124/101/5  128/100/5
usemtl test_level/test_texture
f  128/83/6  125/82/6  126/81/6  127/80/6

o entity0_brush16
usemtl test_level/test_texture
f  129/80/1  130/81/1  131/82/1  132/83/1
usemtl test_level/test_texture
f  133/54/2  131/43/2  130/27/2  134/75/2
usemtl test_level/test_texture
f  134/108/3  130/109/3  129/110/3  135/111/3
usemtl test_level/test_texture
f  136/111/4  132/110/4  131/109/4  133/108/4
usemtl test_level/test_texture
f  135/75/5  129/27/5  132/43/5  136/54/5
usemtl test_level/test_texture
f  136/83/6  133/82/6  134/81/6  135/80/6

o entity0_brush17
usemtl test_level/test_texture
f  137/112/1  138/27/1  139/113/1  140/114/1
usemtl test_level/test_texture
f  141/115/2  139/116/2  138/30/2  142/102/2
usemtl test_level/test_texture
f  142/117/3  138/34/3  137/118/3  143/119/3
usemtl test_level/test_texture
f  144/119/4  140/118/4  139/34/4  141/117/4
usemtl test_level/test_texture
f  143/102/5  137/30/5  140/116/5  144/115/5
usemtl test_level/test_texture
f  144/114/6  141/113/6  142/27/6  143/112/6

o entity0_brush18
usemtl test_level/test_texture
f  145/25/1  146/120/1  147/121/1  148/72/1
usemtl test_level/test_texture
f  149/73/2  147/74/2  146/31/2  150/47/2
usemtl test_level/test_texture
f  150/122/3  146/123/3  145/35/3  151/49/3
usemtl test_level/test_texture
f  152/49/4  148/35/4  147/123/4  149/122/4
usemtl test_level/test_texture
f  151/47/5  145/31/5  148/74/5  152/73/5
usemtl test_level/test_texture
f  152/72/6  149/121/6  150/120/6  151/25/6

o entity0_brush19
usemtl test_level/test_texture
f  153/124/1  154/125/1  155/126/1  156/127/1
usemtl test_level/test_texture
f  157/128/2  155/129/2  154/130/2  158/131/2
usemtl test_level/test_texture
f  158/132/3  154/133/3  153/134/3  159/135/3
usemtl test_level/test_texture
f  160/135/4  156/134/4  155/133/4  157/132/4
usemtl test_level/test_texture
f  159/131/5  153/130/5  156/129/5  160/128/5
usemtl test_level/test_texture
f  160/127/6  157/126/6  158/125/6  159/124/6

o entity0_brush20
usemtl test_level/test_texture
f  161/28/1  162/124/1  163/127/1  164/136/1
usemtl test_level/test_texture
f  165/70/2  163/137/2  162/138/2  166/63/2
usemtl test_level/test_texture
f  166/139/3  162/140/3  161/141/3  167/142/3
usemtl test_level/test_texture
f  168/142/4  164/141/4  163/140/4  165/139/4
usemtl test_level/test_texture
f  167/63/5  161/138/5  164/137/5  168/70/5
usemtl test_level/test_texture
f  168/136/6  165/127/6  166/124/6  167/28/6

o entity0_brush21
usemtl test_level/test_texture
f  169/143/1  170/144/1  171/80/1  172/125/1
usemtl test_level/test_texture
f  173/145/2  171/146/2  170/147/2  174/148/2
usemtl test_level/test_texture
f  174/149/3  170/150/3  169/151/3  175/152/3
usemtl test_level/test_texture
f  176/152/4  172/151/4  171/150/4  173/149/4
usemtl test_level/test_texture
f  175/148/5  169/147/5  172/146/5  176/145/5
usemtl test_level/test_texture
f  176/125/6  173/80/6  174/144/6  175/143/6

o entity0_brush22
usemtl test_level/test_texture
f  177/153/1  178/143/1  179/132/1  180/154/1
usemtl test_level/test_texture
f  181/155/2  179/156/2  178/147/2  182/148/2
usemtl test_level/test_texture
f  182/152/3  178/151/3  177/157/3  183/158/3
usemtl test_level/test_texture
f  184/158/4  180/157/4  179/151/4  181/152/4
usemtl test_level/test_texture
f  183/148/5  177/147/5  180/156/5  184/155/5
usemtl test_level/test_texture
f  184/154/6  181/132/6  182/143/6  183/153/6

o entity0_brush23
usemtl test_level/test_texture
f  185/25/1  186/153/1  187/159/1  188/72/1
usemtl test_level/test_texture
f  189/160/2  187/161/2  186/162/2  190/148/2
usemtl test_level/test_texture
f  190/158/3  186/163/3  185/164/3  191/165/3
usemtl test_level/test_texture
f  192/165/4  188/164/4  187/163/4  189/158/4
usemtl test_level/test_texture
f  191/148/5  185/162/5  188/161/5  192/160/5
usemtl test_level/test_texture
f  192/72/6  189/159/6  190/153/6  191/25/6

o entity0_brush24
usemtl test_level/test_texture
f  193/144/1  194/166/1  195/167/1  196/168/1
usemtl test_level/test_texture
f  197/155/2  195/156/2  194/147/2  198/148/2
usemtl test_level/test_texture
f  198/169/3  194/170/3  193/150/3  199/149/3
usemtl test_level/test_texture
f  200/149/4  196/150/4  195/170/4  197/169/4
usemtl test_level/test_texture
f  199/148/5  193/147/5  196/156/5  200/155/5
usemtl test_level/test_texture
f  200/168/6  197/167/6  198/166/6  199/144/6

o entity0_brush25
usemtl test_level/test_texture
f  201/154/1  202/167/1  203/171/1  204/172/1
usemtl test_level/test_texture
f  205/173/2  203/174/2  202/156/2  206/155/2
usemtl test_level/test_texture
f  206/169/3  202/170/3  201/157/3  207/158/3
usemtl test_level/test_texture
f  208/158/4  204/157/4  203/170/4  205/169/4
usemtl test_level/test_texture
f  207/155/5  201/156/5  204/174/5  208/173/5
usemtl test_level/test_texture
f  208/172/6  205/171/6  206/167/6  207/154/6

o entity0_brush26
usemtl test_level/test_texture
f  209/166/1  210/26/1  211/71/1  212/175/1
usemtl test_level/test_texture
f  213/160/2  211/161/2  210/162/2  214/148/2
usemtl test_level/test_texture
f  214/176/3  210/177/3  209/178/3  215/169/3
usemtl test_level/test_texture
f  216/169/4  212/178/4  211/177/4  213/176/4
usemtl test_level/test_texture
f  215/148/5  209/162/5  212/161/5  216/160/5
usemtl test_level/test_texture
f  216/175/6  213/71/6  214/26/6  215/166/6

o entity0_brush27
usemtl test_level/test_texture
f  217/172/1  218/171/1  219/175/1  220/159/1
usemtl test_level/test_texture
f  221/160/2  219/161/2  218/179/2  222/173/2
usemtl test_level/test_texture
f  222/169/3  218/178/3  217/163/3  223/158/3
usemtl test_level/test_texture
f  224/158/4  220/163/4  219/178/4  221/169/4
usemtl test_level/test_texture
f  223/173/5  217/179/5  220/161/5  224/160/5
usemtl test_level/test_texture
f  224/159/6  221/175/6  222/171/6  223/172/6

o entity0_brush28
usemtl test_level/test_texture
f  225/124/1  226/125/1  227/126/1  228/127/1
usemtl test_level/test_texture
f  229/180/2  227/181/2  226/182/2  230/183/2
usemtl test_level/test_texture
f  230/184/3  226/125/3  225/124/3  231/185/3
usemtl test_level/test_texture
f  232/185/4  228/124/4  227/125/4  229/184/4
usemtl test_level/test_texture
f  231/183/5  225/182/5  228/181/5  232/180/5
usemtl test_level/test_texture
f  232/127/6  229/126/6  230/125/6  231/124/6

o entity0_brush29
usemtl test_level/test_texture
f  233/63/1  234/27/1  235/43/1  236/64/1
usemtl test_level/test_texture
f  237/84/2  235/85/2  234/3/2  238/86/2
usemtl test_level/test_texture
f  238/186/3  234/187/3  233/188/3  239/189/3
usemtl test_level/test_texture
f  240/189/4  236/188/4  235/187/4  237/186/4
usemtl test_level/test_texture
f  239/86/5  233/3/5  236/85/5  240/84/5
usemtl test_level/test_texture
f  240/64/6  237/43/6  238/27/6  239/63/6

o entity0_brush30
usemtl test_level/test_texture
f  241/63/1  242/27/1  243/43/1  244/64/1
usemtl test_level/test_texture
f  245/93/2  243/94/2  242/95/2  246/5/2
usemtl test_level/test_texture
f  246/190/3  242/113/3  241/191/3  247/192/3
usemtl test_level/test_texture
f  248/192/4  244/191/4  243/113/4  245/190/4
usemtl test_level/test_texture
f  247/5/5  241/95/5  244/94/5  248/93/5
usemtl test_level/test_texture
f  248/64/6  245/43/6  246/27/6  247/63/6

o entity0_brush31
usemtl test_level/test_texture
f  249/80/1  250/81/1  251/82/1  252/83/1
usemtl test_level/test_texture
f  253/193/2  251/56/2  250/30/2  254/112/2
usemtl test_level/test_texture
f  254/194/3  250/195/3  249/196/3  255/197/3
usemtl test_level/test_texture
f  256/197/4  252/196/4  251/195/4  253/194/4
usemtl test_level/test_texture
f  255/112/5  249/30/5  252/56/5  256/193/5
usemtl test_level/test_texture
f  256/83/6  253/82/6  254/81/6  255/80/6

o entity0_brush32
usemtl test_level/test_texture
f  257/124/1  258/125/1  259/198/1  260/199/1
usemtl test_level/test_texture
f  261/193/2  259/56/2  258/30/2  262/112/2
usemtl test_level/test_texture
f  262/200/3  258/201/3  257/202/3  263/203/3
usemtl test_level/test_texture
f  264/203/4  260/202/4  259/201/4  261/200/4
usemtl test_level/test_texture
f  263/112/5  257/30/5  260/56/5  264/193/5
usemtl test_level/test_texture
f  264/199/6  261/198/6  262/125/6  263/124/6

o entity0_brush33
usemtl test_level/test_texture
f  265/30/1  266/112/1  267/193/1  268/56/1
usemtl test_level/test_texture
f  269/93/2  267/94/2  266/95/2  270/5/2
usemtl test_level/test_texture
f  270/204/3  266/114/3  265/116/3  271/205/3
usemtl test_level/test_texture
f  272/205/4  268/116/4  267/114/4  269/204/4
usemtl test_level/test_texture
f  271/5/5  265/95/5  268/94/5  272/93/5
usemtl test_level/test_texture
f  272/56/6  269/193/6  270/112/6  271/30/6

o entity0_brush34
usemtl test_level/test_texture
f  273/125/1  274/206/1  275/207/1  276/198/1
usemtl test_level/test_texture
f  277/93/2  275/94/2  274/95/2  278/5/2
usemtl test_level/test_texture
f  278/208/3  274/209/3  273/210/3  279/211/3
usemtl test_level/test_texture
f  280/211/4  276/210/4  275/209/4  277/208/4
usemtl test_level/test_texture
f  279/5/5  273/95/5  276/94/5  280/93/5
usemtl test_level/test_texture
f  280/198/6  277/207/6  278/206/6  279/125/6

o entity0_brush35
usemtl test_level/test_texture
f  281/30/1  282/112/1  283/193/1  284/56/1
usemtl test_level/test_texture
f  285/54/2  283/43/2  282/27/2  286/75/2
usemtl test_level/test_texture
f  286/212/3  282/213/3  281/214/3  287/215/3
usemtl test_level/test_texture
f  288/215/4  284/214/4  283/213/4  285/212/4
usemtl test_level/test_texture
f  287/75/5  281/27/5  284/43/5  288/54/5
usemtl test_level/test_texture
f  288/56/6  285/193/6  286/112/6  287/30/6

o entity0_brush36
usemtl test_level/test_texture
f  289/124/1  290/125/1  291/198/1  292/199/1
usemtl test_level/test_texture
f  293/54/2  291/43/2  290/27/2  294/75/2
usemtl test_level/test_texture
f  294/216/3  290/217/3  289/218/3  295/219/3
usemtl test_level/test_texture
f  296/219/4  292/218/4  291/217/4  293/216/4
usemtl test_level/test_texture
f  295/75/5  289/27/5  292/43/5  296/54/5
usemtl test_level/test_texture
f  296/199/6  293/198/6  294/125/6  295/124/6

